<svg width="81" height="113" viewBox="0 0 81 113" fill="none" xmlns="http://www.w3.org/2000/svg">
<path d="M40.5 0.9375C18.59 0.9375 0.8125 16.939 0.8125 36.6562C0.8125 68.4062 40.5 112.062 40.5 112.062C40.5 112.062 80.1875 68.4062 80.1875 36.6562C80.1875 16.939 62.41 0.9375 40.5 0.9375ZM40.5 56.5C37.3602 56.5 34.291 55.5689 31.6803 53.8246C29.0697 52.0802 27.035 49.6009 25.8334 46.7001C24.6319 43.7993 24.3175 40.6074 24.93 37.5279C25.5426 34.4485 27.0545 31.6198 29.2747 29.3997C31.4948 27.1795 34.3235 25.6676 37.4029 25.055C40.4824 24.4425 43.6743 24.7569 46.5751 25.9584C49.4759 27.16 51.9552 29.1947 53.6996 31.8053C55.4439 34.416 56.375 37.4852 56.375 40.625C56.3704 44.8339 54.6964 48.8691 51.7202 51.8452C48.7441 54.8214 44.7089 56.4954 40.5 56.5Z" fill="#27364A"/>
</svg>
