<svg width="127" height="127" viewBox="0 0 127 127" fill="none" xmlns="http://www.w3.org/2000/svg">
<path d="M111.125 52.9167C111.125 89.9583 63.5 121.708 63.5 121.708C63.5 121.708 15.875 89.9583 15.875 52.9167C15.875 40.2857 20.8926 28.1721 29.824 19.2407C38.7555 10.3093 50.8691 5.29169 63.5 5.29169C76.1309 5.29169 88.2445 10.3093 97.176 19.2407C106.107 28.1721 111.125 40.2857 111.125 52.9167Z" stroke="#27364A" stroke-width="9" stroke-linecap="round" stroke-linejoin="round"/>
<path d="M63.5 68.7916C72.2675 68.7916 79.375 61.6842 79.375 52.9166C79.375 44.1491 72.2675 37.0416 63.5 37.0416C54.7325 37.0416 47.625 44.1491 47.625 52.9166C47.625 61.6842 54.7325 68.7916 63.5 68.7916Z" stroke="#27364A" stroke-width="9" stroke-linecap="round" stroke-linejoin="round"/>
</svg>
