<svg width="127" height="127" viewBox="0 0 127 127" fill="none" xmlns="http://www.w3.org/2000/svg">
<path d="M90.9828 68.8425C90.9969 68.803 101.49 44.2948 100.942 44.0097C100.412 43.7303 93.63 57.5903 88.6883 66.9742L87.1361 66.1585C91.4428 56.4416 98.1315 42.5337 97.584 42.2543C97.0534 41.9749 89.8398 55.6006 84.5905 64.8293L83.0382 64.0165C87.6441 54.4491 94.7589 40.7726 94.2255 40.4932C93.6893 40.2138 86.0298 53.6081 80.4785 62.6759L78.9178 61.8546C83.8341 52.4538 91.3836 39.0059 90.853 38.7265C90.3139 38.4415 79.1351 56.2977 76.0928 61.0334C73.4427 65.1736 73.6205 70.9253 77.01 74.0128C72.3702 82.1267 67.739 90.2321 63.1021 98.3432C58.3438 90.2406 53.5855 82.1323 48.8244 74.0297C54.3645 69.7399 55.2902 61.2253 50.7464 54.5733C45.9796 47.4641 36.0144 39.5704 30.0792 42.5506C24.3304 45.878 25.4564 58.5414 28.7895 66.4266C31.8572 73.8717 39.4914 77.7748 46.1095 75.4944C50.7577 84.8924 55.403 94.2876 60.0456 103.683C58.0136 107.242 55.9816 110.798 53.9468 114.359C29.9184 109.866 11.7235 88.8266 11.7235 63.5C11.7292 34.9052 34.9052 11.7263 63.5 11.7263C92.0948 11.7263 115.271 34.9024 115.271 63.4972C115.271 88.9931 96.8276 110.132 72.5593 114.427C70.4483 110.834 68.3401 107.244 66.2347 103.652C70.7503 94.2538 75.2574 84.8558 79.7729 75.4521C84.1869 76.5669 88.8351 73.8096 90.9687 68.8312C93.2039 63.6214 90.9772 68.8425 90.9828 68.8425ZM68.2667 120.286C66.6835 120.419 65.1087 120.529 63.5 120.529C61.7333 120.529 59.9892 120.421 58.262 120.263C57.277 122.312 56.292 124.358 55.3127 126.41C57.9995 126.76 60.7229 127 63.5 127C66.1501 127 68.7522 126.783 71.3204 126.467C70.3044 124.409 69.2856 122.349 68.2667 120.286ZM63.5 0C28.4875 0 0 28.4875 0 63.5C0 93.1164 20.4075 117.989 47.8818 124.976C48.991 123.035 50.0973 121.099 51.2064 119.16C25.654 113.518 6.46853 90.7203 6.46853 63.5C6.46853 32.052 32.052 6.47136 63.4972 6.47136C94.9424 6.47136 120.526 32.0548 120.526 63.5C120.526 90.8614 101.143 113.769 75.3928 119.259C76.5246 121.192 77.6619 123.125 78.7964 125.061C106.432 118.183 127 93.2321 127 63.5C127 28.4875 98.5125 0 63.5 0ZM65.7296 115.161C64.8829 113.442 64.0334 111.726 63.1839 110.007C62.3655 111.718 61.5442 113.425 60.7258 115.13C61.6514 115.178 62.5658 115.268 63.5 115.268C64.2535 115.271 64.9817 115.186 65.7296 115.161Z" fill="#27364A"/>
</svg>
