<svg width="40" height="60" viewBox="0 0 40 60" fill="none" xmlns="http://www.w3.org/2000/svg">
<path d="M40 20.4583C40 31.7572 22.6667 35.45 20 60C18 35.45 0 31.7572 0 20.4583C0 9.15951 8.95431 0 20 0C31.0457 0 40 9.15951 40 20.4583Z" fill="#242930"/>
<path d="M26.492 19.262C26.4953 19.2527 28.974 13.4633 28.8447 13.396C28.7193 13.33 27.1173 16.604 25.95 18.8207L25.5833 18.628C26.6007 16.3327 28.1807 13.0473 28.0513 12.9813C27.926 12.9153 26.222 16.134 24.982 18.314L24.6153 18.122C25.7033 15.862 27.384 12.6313 27.258 12.5653C27.1313 12.4993 25.322 15.6633 24.0107 17.8053L23.642 17.6113C24.8033 15.3907 26.5867 12.214 26.4613 12.148C26.334 12.0807 23.6933 16.2987 22.9747 17.4173C22.3487 18.3953 22.3907 19.754 23.1913 20.4833C22.0953 22.4 21.0013 24.3147 19.906 26.2307C18.782 24.3167 17.658 22.4013 16.5333 20.4873C17.842 19.474 18.0607 17.4627 16.9873 15.8913C15.8613 14.212 13.5073 12.3473 12.1053 13.0513C10.7473 13.8373 11.0133 16.8287 11.8007 18.6913C12.5253 20.45 14.3287 21.372 15.892 20.8333C16.99 23.0533 18.0873 25.2727 19.184 27.492C18.704 28.3327 18.224 29.1727 17.7433 30.014C12.0673 28.9527 7.76933 23.9827 7.76933 18C7.77067 11.2453 13.2453 5.77 20 5.77C26.7547 5.77 32.2293 11.2447 32.2293 17.9993C32.2293 24.022 27.8727 29.0153 22.14 30.03C21.6413 29.1813 21.1433 28.3333 20.646 27.4847C21.7127 25.2647 22.7773 23.0447 23.844 20.8233C24.8867 21.0867 25.9847 20.4353 26.4887 19.2593C27.0167 18.0287 26.4907 19.262 26.492 19.262ZM21.126 31.414C20.752 31.4453 20.38 31.4713 20 31.4713C19.5827 31.4713 19.1707 31.446 18.7627 31.4087C18.53 31.8927 18.2973 32.376 18.066 32.8607C18.7007 32.9433 19.344 33 20 33C20.626 33 21.2407 32.9487 21.8473 32.874C21.6073 32.388 21.3667 31.9013 21.126 31.414ZM20 3C11.7293 3 5 9.72933 5 18C5 24.996 9.82067 30.8713 16.3107 32.522C16.5727 32.0633 16.834 31.606 17.096 31.148C11.06 29.8153 6.528 24.43 6.528 18C6.528 10.5713 12.5713 4.52867 19.9993 4.52867C27.4273 4.52867 33.4707 10.572 33.4707 18C33.4707 24.4633 28.892 29.8747 22.8093 31.1713C23.0767 31.628 23.3453 32.0847 23.6133 32.542C30.1413 30.9173 35 25.0233 35 18C35 9.72933 28.2707 3 20 3ZM20.5267 30.2033C20.3267 29.7973 20.126 29.392 19.9253 28.986C19.732 29.39 19.538 29.7933 19.3447 30.196C19.5633 30.2073 19.7793 30.2287 20 30.2287C20.178 30.2293 20.35 30.2093 20.5267 30.2033Z" fill="white"/>
</svg>
