<svg width="90" height="90" viewBox="0 0 90 90" fill="none" xmlns="http://www.w3.org/2000/svg">
<path d="M64.476 48.786C64.486 48.758 71.922 31.39 71.534 31.188C71.158 30.99 66.352 40.812 62.85 47.462L61.75 46.884C64.802 39.998 69.542 30.142 69.154 29.944C68.778 29.746 63.666 39.402 59.946 45.942L58.846 45.366C62.11 38.586 67.152 28.894 66.774 28.696C66.394 28.498 60.966 37.99 57.032 44.416L55.926 43.834C59.41 37.172 64.76 27.642 64.384 27.444C64.002 27.242 56.08 39.896 53.924 43.252C52.046 46.186 52.172 50.262 54.574 52.45C51.286 58.2 48.004 63.944 44.718 69.692C41.346 63.95 37.974 58.204 34.6 52.462C38.526 49.422 39.182 43.388 35.962 38.674C32.584 33.636 25.522 28.042 21.316 30.154C17.242 32.512 18.04 41.486 20.402 47.074C22.576 52.35 27.986 55.116 32.676 53.5C35.97 60.16 39.262 66.818 42.552 73.476C41.112 75.998 39.672 78.518 38.23 81.042C21.202 77.858 8.308 62.948 8.308 45C8.312 24.736 24.736 8.31 45 8.31C65.264 8.31 81.688 24.734 81.688 44.998C81.688 63.066 68.618 78.046 51.42 81.09C49.924 78.544 48.43 76 46.938 73.454C50.138 66.794 53.332 60.134 56.532 53.47C59.66 54.26 62.954 52.306 64.466 48.778C66.05 45.086 64.472 48.786 64.476 48.786ZM48.378 85.242C47.256 85.336 46.14 85.414 45 85.414C43.748 85.414 42.512 85.338 41.288 85.226C40.59 86.678 39.892 88.128 39.198 89.582C41.102 89.83 43.032 90 45 90C46.878 90 48.722 89.846 50.542 89.622C49.822 88.164 49.1 86.704 48.378 85.242ZM45 0C20.188 0 0 20.188 0 45C0 65.988 14.462 83.614 33.932 88.566C34.718 87.19 35.502 85.818 36.288 84.444C18.18 80.446 4.584 64.29 4.584 45C4.584 22.714 22.714 4.586 44.998 4.586C67.282 4.586 85.412 22.716 85.412 45C85.412 64.39 71.676 80.624 53.428 84.514C54.23 85.884 55.036 87.254 55.84 88.626C75.424 83.752 90 66.07 90 45C90 20.188 69.812 0 45 0ZM46.58 81.61C45.98 80.392 45.378 79.176 44.776 77.958C44.196 79.17 43.614 80.38 43.034 81.588C43.69 81.622 44.338 81.686 45 81.686C45.534 81.688 46.05 81.628 46.58 81.61Z" fill="#DFDFE3"/>
</svg>
